<mxfile host="app.diagrams.net" modified="2023-09-04T13:44:30.680Z" agent="Mozilla/5.0 (X11; Linux x86_64) AppleWebKit/537.36 (KHTML, like Gecko) Chrome/115.0.0.0 Safari/537.36" version="21.7.2" etag="VqV-k0M9nE4Hezj0CYO1" type="github">
  <diagram name="PÃ¡gina-1" id="01YKuYqhA8cWAsfPwwMt">
    <mxGraphModel>
      <root>
        <mxCell id="0" />
        <mxCell id="1" parent="0" />
      </root>
    </mxGraphModel>
  </diagram>
</mxfile>
